<?xml version="1.0" ?><svg enable-background="new 0 0 515.91 728.5" height="512" id="Layer_1" version="1.1" viewBox="0 0 512.00003 512" width="512" xml:space="preserve" xmlns="http://www.w3.org/2000/svg" xmlns:cc="http://creativecommons.org/ns#" xmlns:dc="http://purl.org/dc/elements/1.1/" xmlns:inkscape="http://www.inkscape.org/namespaces/inkscape" xmlns:rdf="http://www.w3.org/1999/02/22-rdf-syntax-ns#" xmlns:sodipodi="http://sodipodi.sourceforge.net/DTD/sodipodi-0.dtd" xmlns:svg="http://www.w3.org/2000/svg"><defs id="defs7"/><g id="g10904" transform="matrix(1.0000019,0,0,1.0000002,19723.678,-9354.4531)"><g id="g10900" transform="matrix(1.0000033,0,0,1.0000033,0.06356087,-1.210351)"><path d="m -19707.597,9641.8087 c -2.629,0 -5.217,1.107 -7.073,2.969 -1.856,1.863 -2.971,4.443 -2.969,7.073 l 0,149.106 c 0,2.628 1.113,5.253 2.969,7.117 1.856,1.861 4.444,2.962 7.073,2.969 l 37.244,0 c 2.634,0 5.254,-1.108 7.117,-2.969 1.863,-1.864 2.971,-4.483 2.969,-7.117 l 0,-149.106 c 0,-2.634 -1.106,-5.253 -2.969,-7.116 -1.863,-1.864 -4.483,-2.928 -7.117,-2.926 l -37.244,0 z" id="path13350-6" style="font-size:medium;font-style:normal;font-variant:normal;font-weight:normal;font-stretch:normal;text-indent:0;text-align:start;text-decoration:none;line-height:normal;letter-spacing:normal;word-spacing:normal;text-transform:none;direction:ltr;block-progression:tb;writing-mode:lr-tb;text-anchor:start;baseline-shift:baseline;color:#000000;fill:#333333;fill-opacity:1;stroke:none;stroke-width:19.54213333;marker:none;visibility:visible;display:inline;overflow:visible;enable-background:accumulate;font-family:Sans;-inkscape-font-specification:Sans"/><path d="m -19546.222,9650.8027 c -46.474,0.541 -92.651,15.588 -92.651,15.588 -4.021,1.293 -6.99,5.382 -6.986,9.605 l 0,99.812 c 0.195,6.782 4.579,11.261 10.479,11.832 3.177,0.273 8.136,0.956 18.076,2.314 0.427,0.06 4.511,1.161 9.519,3.144 5.007,1.982 11.384,4.775 18.6,8.077 14.431,6.603 32.219,15.315 50.211,23.97 17.992,8.657 36.166,17.251 51.477,23.928 15.312,6.676 26.294,11.597 36.24,12.356 15.101,1.172 40.886,-3.004 67.327,-7.204 26.44,-4.2 53.353,-8.741 60.515,-9.082 21.244,-1.002 38.737,-16.948 50.255,-24.407 14.956,-9.718 32.182,-20.119 46.413,-33.664 l 0.04,0 c 5.155,-4.897 9.059,-11.243 8.951,-19.604 -0.935,-6.892 -7.114,-5.133 -8.689,-7.991 2.077,-2.239 8.241,-7.947 8.689,-12.268 1.478,-12.835 -11.654,-19.262 -22.312,-20.128 -19.736,-0.981 -37.671,10.923 -47.591,20.347 -15.277,14.57 -31.69,19.485 -54.316,22.092 -27.091,3.141 -52.477,5.264 -76.714,-2.401 -3.609,-1.142 -11.901,-4.772 -19.517,-7.991 -3.808,-1.607 -7.57,-3.116 -10.872,-4.321 -2.476,-0.906 -4.055,-1.807 -6.855,-2.184 8.254,-1.066 21.686,-2.993 34.1,-1.529 15.01,1.772 61.551,1.864 80.775,5.371 7.349,1.339 14.603,-0.383 20.041,-3.885 5.437,-3.505 9.178,-8.458 11.745,-13.666 5.133,-10.422 7.242,-16.11 -0.175,-26.329 -6.736,-9.273 -17.093,-12.371 -28.598,-15.632 -11.505,-3.258 -24.497,-5.507 -36.021,-7.335 -23.838,-3.785 -41.638,-2.94 -59.206,-6.287 -6.335,-1.204 -17.348,-7.553 -32.485,-14.714 -15.136,-7.16 -34.795,-14.677 -60.646,-17.072 -6.518,-0.602 -13.183,-0.819 -19.823,-0.742 z" id="path13352-1" style="font-size:medium;font-style:normal;font-variant:normal;font-weight:normal;font-stretch:normal;text-indent:0;text-align:start;text-decoration:none;line-height:normal;letter-spacing:normal;word-spacing:normal;text-transform:none;direction:ltr;block-progression:tb;writing-mode:lr-tb;text-anchor:start;baseline-shift:baseline;color:#000000;fill:#333333;fill-opacity:1;stroke:none;stroke-width:19.54213333;marker:none;visibility:visible;display:inline;overflow:visible;enable-background:accumulate;font-family:Sans;-inkscape-font-specification:Sans"/></g><path d="m -19483.192,9360.4512 c -52.425,0 -88.372,43.8991 -88.372,93.0744 0,49.5192 39.216,151.044 162.782,216.8367 a 5.2801732,5.2801732 0 0 0 4.95,0 c 69.76,-37.1313 112.635,-85.9148 136.714,-130.0526 a 5.2801732,5.2801732 0 0 0 0.124,-0.2681 l 11.899,-24.9958 a 5.2801732,5.2801732 0 0 0 0.103,-0.2681 c 9.752,-23.9085 13.962,-45.2128 13.962,-61.2521 0,-49.1753 -35.948,-93.0744 -88.372,-93.0744 -40.853,0 -67.09,28.2556 -76.906,41.041 -9.818,-12.7852 -36.04,-41.041 -76.885,-41.041 z" id="path10897" style="font-size:medium;font-style:normal;font-variant:normal;font-weight:normal;font-stretch:normal;text-indent:0;text-align:start;text-decoration:none;line-height:normal;letter-spacing:normal;word-spacing:normal;text-transform:none;direction:ltr;block-progression:tb;writing-mode:lr-tb;text-anchor:start;baseline-shift:baseline;color:#000000;fill:#f65314;fill-opacity:1;stroke:none;stroke-width:15.99999905;marker:none;visibility:visible;display:inline;overflow:visible;enable-background:accumulate;font-family:Sans;-inkscape-font-specification:Sans"/></g></svg>