<?xml version="1.0" ?><!DOCTYPE svg  PUBLIC '-//W3C//DTD SVG 1.1//EN'  'http://www.w3.org/Graphics/SVG/1.1/DTD/svg11.dtd'><svg height="512px" id="Слой_1" style="enable-background:new 0 0 512 512;" version="1.1" viewBox="0 0 512 512" width="512px" xml:space="preserve" xmlns="http://www.w3.org/2000/svg" xmlns:xlink="http://www.w3.org/1999/xlink"><path d="M493.534,191.283l-227.074-82.269  c-3.997-1.425-8.6-1.571-12.882,0L26.505,191.283c-5.099,1.856-9.381,5.852-11.383,11.347c-3.493,9.776,1.607,20.619,11.383,24.111  l5.282,1.929v43.027L6.851,331.273c-2.36,5.706,0.351,12.413,6.13,14.839c5.779,2.36,12.421-0.351,14.846-6.137l3.96-9.484v10.916  c0,6.276,5.027,11.347,11.303,11.347c6.32,0,11.347-5.071,11.347-11.347v-10.85l3.997,9.418c2.389,5.787,8.994,8.497,14.774,6.137  c5.779-2.426,8.49-9.133,6.13-14.839l-24.9-59.503v-34.822l81.488,29.466v87.764v0.285v0.285v0.146l0.102,0.139  c0.468,15.628,15.986,28.685,40.674,37.102c21.51,7.423,51.013,11.99,83.3,11.99c32.324,0,61.826-4.566,83.336-11.99  c24.688-8.417,40.171-21.473,40.674-37.102v-0.139v-0.146l0.066-0.285v-0.285v-87.764l109.456-39.673  c5.1-1.784,9.345-5.845,11.347-11.274C508.41,205.698,503.31,194.776,493.534,191.283z M361.392,354.178v0.212  c-0.321,5.209-9.922,11.062-25.295,16.271c-19.267,6.633-46.198,10.704-76.096,10.704s-56.792-4.07-76.059-10.704  c-15.343-5.209-24.973-11.062-25.258-16.271v-0.212v-0.285c0.285-5.209,9.915-10.989,25.258-16.272  c19.267-6.56,46.162-10.703,76.059-10.703s56.829,4.143,76.096,10.703c15.373,5.21,24.973,11.063,25.295,16.272V354.178z   M361.392,324.069c-5.282-2.996-11.346-5.641-18.054-7.92c-21.51-7.35-51.012-11.917-83.336-11.917  c-32.287,0-61.79,4.567-83.3,11.917c-6.707,2.28-12.808,4.99-18.018,7.92v-80.984c0-5.282,9.63-11.274,25.258-16.556  c19.267-6.561,46.162-10.705,76.059-10.705s56.829,4.143,76.096,10.705c15.592,5.283,25.295,11.274,25.295,16.556V324.069z   M379.19,228.026c-6.525-9.344-19.011-17.191-35.852-22.97c-21.51-7.351-51.012-11.917-83.336-11.917  c-32.287,0-61.79,4.566-83.3,11.917c-16.805,5.779-29.328,13.626-35.86,22.97l-52.474-18.974l171.633-62.221l171.67,62.221  L379.19,228.026z" style="fill-rule:evenodd;clip-rule:evenodd;fill:#3C3C3B;"/></svg>