<?xml version="1.0" encoding="utf-8"?>
<!-- Generator: Adobe Illustrator 16.0.3, SVG Export Plug-In . SVG Version: 6.00 Build 0)  -->
<!DOCTYPE svg PUBLIC "-//W3C//DTD SVG 1.1//EN" "http://www.w3.org/Graphics/SVG/1.1/DTD/svg11.dtd">
<svg version="1.1" id="Ebene_1" xmlns="http://www.w3.org/2000/svg" xmlns:xlink="http://www.w3.org/1999/xlink" x="0px" y="0px"
	 width="144.75px" height="49px" viewBox="0 0 144.75 49" enable-background="new 0 0 144.75 49" xml:space="preserve">
<path d="M12.333,29.867c0.393,3.596,0.225,2.194,0.45,3.963c0.168,1.219,0.617,3.717,1.292,0.061l0.393-2.072
	c1.236-7.254,1.685-9.814,2.023-12.801c0.056-0.609,0.225-1.341,0.73-1.646c0.449-0.182,1.18,0.122,1.292,0.244
	c0.169,0.183,0.169,0.366,0.225,0.61c0.056,0.183,0.112,0.488,0.168,0.853c0.057,0.427,0.282,1.463,0.338,1.951
	c0.843,4.693,2.079,9.448,3.596,13.896c0.73,2.135,1.235,2.927,1.235,2.074c0-1.524,0-3.049-0.056-4.572
	c-0.393-9.57,0.45-18.347,2.528-26.333c0.169-0.488,0.562-0.731,1.011-0.61c0.45,0.122,0.618,0.61,0.563,1.097
	c-2.08,7.803-2.922,16.397-2.528,25.722c0.055,1.891,0.112,3.476,0.112,4.756c-0.057,1.158-0.057,2.072-0.112,2.742
	c-0.057,0.427-0.113,0.731-0.17,1.037c-0.168,0.305-0.28,0.791-0.786,0.975c-0.281,0.061-0.562,0-0.786-0.184
	c-0.169-0.183-0.225-0.304-0.393-0.608c-0.225-0.427-0.675-1.463-0.9-2.134c-1.685-4.449-3.146-8.838-4.045-13.471
	c-0.506-2.561-0.955-1.951-1.348,0c-0.337,1.707-0.674,3.9-1.124,6.705l-1.123,6.645c-0.169,0.975-0.337,1.705-0.45,2.193
	c-0.056,0.305-0.112,0.487-0.168,0.67c0,0.123,0,0.184-0.057,0.244c-0.055,0.062-0.055,0.123-0.055,0.184
	c-0.113,0.183-0.225,0.305-0.338,0.365c-0.281,0.183-0.562,0.123-0.843-0.061l-0.224-0.244c-0.057-0.061-0.057-0.183-0.112-0.244
	c-0.057-0.061-0.057-0.121-0.113-0.305c-0.057-0.182-0.112-0.486-0.225-0.914c-0.168-0.73-0.337-1.829-0.618-3.23
	c-0.505-2.621-1.123-8.594-1.966-16.458l-0.674-7.132c-0.057-0.548-0.169-1.341-0.338-2.438C8.4,9.203,8.119,7.437,8.288,5.729
	c0-0.487,0.394-0.853,0.843-0.853c0.449,0.061,0.787,0.488,0.73,0.975c-0.056,1.524,0.112,3.048,0.45,5.181
	c0.168,1.036,0.281,1.89,0.337,2.56c0.056,0.793,0.337,3.17,0.73,7.132L12.333,29.867z"/>
<path d="M34.966,7.675c0.162,3.901,0.107,9.807-0.216,17.663c-0.054,1.739-0.054,4.059,0.108,6.959
	c0.162,3.639,0.27,6.012,0.27,7.064c0,0.423-0.324,0.738-0.755,0.738c-0.432,0-0.755-0.315-0.755-0.738
	c0-1.211-0.108-3.531-0.27-7.012c-0.161-3.216-0.215-5.589-0.107-7.117c0.323-7.17,0.377-12.971,0.215-17.453
	c-0.054-0.421,0.27-0.79,0.701-0.843C34.589,6.937,34.966,7.253,34.966,7.675"/>
<path d="M44.833,22.898c-0.162,0.054,0,0.377,0,0.377c1.726,2.859,2.697,5.339,4.8,10.57c0.701,1.887,1.402,3.396,1.995,4.476
	c0.485,0.916-0.917,1.671-1.402,0.755c-0.593-1.133-1.294-2.697-2.049-4.638c-2.481-6.417-4.045-9.813-4.853-10.623
	c-0.054-0.054-0.109-0.054-0.162-0.162c-0.054,0.378-0.216,1.079-0.216,1.672c-0.054,0.97-0.054,1.888-0.108,2.804
	c0,0.432-0.054,1.295-0.107,2.588c-0.163,2.643-0.163,3.397-0.163,5.447c0,1.024,0.054,1.995,0.108,2.805
	c0.055,0.431-0.269,0.809-0.701,0.809c-0.431,0.053-0.809-0.27-0.809-0.701c-0.107-0.809-0.161-1.779-0.161-2.857
	c0-2.104,0-2.967,0.161-5.609c0.054-1.294,0.108-2.157,0.163-2.588c0.323-7.388,0.215-13.805-0.216-19.197
	c-0.054-0.486-0.324-0.863-0.216-1.348c0.053-0.108,0.053-0.162,0.108-0.27c0.054-0.162,0.215-0.323,0.431-0.378
	c4.26-1.024,7.55,0.108,9.437,2.697c1.887,2.426,1.725,6.201-0.701,9.221c-1.456,1.887-3.236,3.235-5.231,4.098L44.833,22.898z
	 M44.24,21.442c0.377-0.162,0.431-0.162,0.701-0.324c3.236-1.617,5.447-4.691,5.608-7.279c0.054-1.349-0.27-2.481-0.97-3.397
	c-1.132-1.726-3.29-2.697-5.932-2.481C43,8.015,42.676,8.5,42.676,9.147c0.27,3.182,0.378,6.957,0.324,11.325
	c0,0.808,0.162,1.132,0.431,1.132C43.863,21.604,44.24,21.442,44.24,21.442"/>
<path d="M61.448,7.045c1.241,0.008,4.049,0.065,4.481,0.049c0.431-0.016,0.766,0.292,0.781,0.719
	c0.008,0.212-0.039,0.374-0.195,0.54c-0.156,0.166-0.316,0.225-0.532,0.233c-0.431,0.016-3.237,0.012-4.532,0.007
	c-1.08-0.014-1.942,0.017-2.533,0.093c-0.215,0.008-0.431,0.016-0.592,0.021c-0.368,0.281-0.566,0.768-0.566,0.768
	c-0.086,0.59-0.162,1.447-0.177,2.515c-0.039,1.869-0.001,4.376,0.062,7.576l0.023,0.639c0.026,0.693,0.417,1.052,1.116,0.973
	c0.86-0.085,1.83-0.12,2.1-0.13c0.428-0.069,0.818,0.237,0.887,0.661c0.015,0.426-0.294,0.811-0.725,0.827
	c-0.16,0.06-0.645,0.077-1.453,0.107c-0.323,0.012-0.645,0.077-0.914,0.087c-0.593,0.022-0.901,0.46-0.877,1.1
	c0.054,1.492,0.113,3.092,0.236,4.955c0.138,2.289,0.183,3.514,0.193,3.781c0.002,0.053,0.019,0.533,0.051,1.385
	c-0.023,0.855,0.004,1.602,0.026,2.188c0.031,0.853,0.057,1.545,0.128,2.022c0.06,0.158,0.065,0.317,0.071,0.479
	c0.108-0.004,0.216-0.008,0.324-0.012c0.27-0.01,0.541,0.033,1.026,0.015l1.724-0.063c0.701-0.025,1.509-0.056,2.531-0.146
	c0.97-0.036,1.509-0.056,1.617-0.06c0.431-0.017,0.766,0.291,0.781,0.719c0.016,0.426-0.295,0.758-0.726,0.773
	c-0.109,0.004-0.647,0.023-1.615,0.112c-0.968,0.089-1.776,0.119-2.477,0.146c-1.078,0.039-1.887,0.068-2.481,0.037
	c-0.162,0.006-0.323,0.012-0.485,0.018c-0.324,0.012-0.645,0.076-1.086-0.174c-0.054,0.002-0.11-0.049-0.165-0.1
	c-0.278-0.203-0.397-0.52-0.461-0.785c-0.061-0.211-0.071-0.478-0.083-0.797c-0.074-0.531-0.099-1.224-0.132-2.13
	c-0.022-0.586-0.049-1.331-0.027-2.187c-0.031-0.854-0.048-1.332-0.05-1.387c-0.002-0.053-0.061-1.651-0.233-4.848
	c-0.342-6.391-0.549-12.04-0.473-15.832c0.013-1.121,0.089-1.978,0.172-2.675c0.136-0.699,0.272-1.397,0.694-1.68
	c0.421-0.282,1.066-0.359,1.872-0.442L61.448,7.045z"/>
<path d="M71.413,6.656c-0.055-0.063-0.051-0.187-0.103-0.313c-0.349-1.56,1.021-2.327,2.058-1.244
	c0.055,0.064,0.163,0.191,0.217,0.317c0.162,0.191,0.324,0.443,0.649,0.887c0.429,0.694,0.856,1.512,1.333,2.518
	c1.05,2.573,1.531,3.455,2.503,4.847c0.756,1.076,0.632,1.506,1.459,0.103c1.948-3.293,3.593-5.727,4.987-7.361
	c0.056,0.001,0.056,0.001,0.058-0.06c0,0,0.002-0.062,0.06-0.123c0.058-0.06,0.117-0.182,0.178-0.305
	c0.238-0.489,0.761-1.094,1.479-0.64c0.168,0.067,0.276,0.194,0.383,0.383l0.106,0.251c-0.002,0.062-0.006,0.186,0.045,0.374
	c0.052,0.187,0.042,0.497,0.087,0.871c0.135,1.181,0.116,1.863,0.206,6.579c0.078,3.165,0.106,6.143,0.084,8.87
	c0.062,7.692,0.173,13.649,0.634,19.181c0.041,0.498-0.254,0.986-0.703,0.973c-0.451,0.049-0.892-0.273-0.877-0.77
	c-0.518-5.534-0.625-11.614-0.627-19.366c-0.06-3.847-0.088-6.762-0.086-8.809c-0.102-2.36-0.119-3.724-0.108-4.096
	c0.009-0.31-0.04-0.559-0.031-0.869c0.011-0.372-0.79,0.101-1.435,1.013c-0.879,1.278-1.938,2.921-3.061,4.812l-0.472,0.793
	c-0.649,1.097-2.027,1.744-3.037,0.099c-1.567-2.215-1.996-2.972-3.315-5.924c-0.158-0.377-0.316-0.753-0.424-0.942
	c-0.421-1.004-0.421,0.98-0.457,2.219c0.032,0.869,0.004,1.861-0.027,2.914c-0.063,2.231-0.215,5.575-0.453,10.034
	c-0.297,4.456-0.448,7.801-0.512,10.032c-0.015,0.494-0.033,1.177-0.059,2.043c-0.081,0.867-0.102,1.549-0.115,2.045
	c-0.029,1.053,0.036,2.666,0.227,3.851c0.045,0.435-0.195,0.987-0.59,1.037c-0.451,0.049-0.949-0.213-0.991-0.71
	c-0.346-1.684-0.303-3.171-0.168-5.958c0.095-1.362,0.118-2.168,0.123-2.353c0.064-2.231,0.216-5.576,0.512-10.033
	c0.24-4.458,0.391-7.802,0.455-10.033c0.079-2.788,0.031-5.022-0.086-6.824c0.002-0.062,0.002-0.062-0.053-0.125L71.413,6.656z"/>
<path d="M103.889,17.55c-0.056,9.529-0.682,14.398-1.771,17.842c-0.709,2.279-1.699,3.737-2.919,4.429
	c-1.608,0.94-3.091,0.435-4.153-0.911c-0.754-1.063-1.424-2.712-1.955-4.947c-1.103-4.795-2.644-17.905,1.198-24.603
	c0.88-1.409,2.616-2.721,4.193-3.017c2.662-0.457,4.245,1.239,4.976,3.808C103.732,11.08,104.026,12.711,103.889,17.55
	 M102.513,14.949c-0.022-1.67-0.163-3.132-0.533-4.335c-0.543-2.021-1.569-3.042-3.252-2.751c-1.086,0.16-2.433,1.223-3.081,2.321
	c-3.596,6.117-2.134,18.63-1.032,23.425c0.49,2.019,1.007,3.498,1.664,4.34c0.658,0.842,1.243,0.979,2.127,0.54
	c1.773-0.987,2.94-4.859,3.474-10.056C102.178,25.756,102.331,21.671,102.513,14.949"/>
<path d="M112.073,22.264c-0.614,0.24-0.886,0.696-0.869,1.371c-0.01,9.396-0.003,14.627,0.021,15.641
	c0.011,0.449-0.319,0.795-0.769,0.805c-0.45,0.01-0.796-0.318-0.806-0.77c-0.06-2.586-0.086-6.187-0.078-10.744
	c-0.03-8.719,0.177-11.931-0.403-20.075c-0.083-1.18-0.59-1.224-1.315-0.926c-0.056,0.001-0.11,0.059-0.167,0.06
	c-0.945,0.471-1.653-0.975-0.709-1.447c2.896-1.36,6.444-1.16,9.236,0.351c3.128,1.504,4.938,4.388,4.346,8.002
	c-0.344,2.202-1.596,4.031-3.758,5.431c-0.332,0.233-0.665,0.409-0.999,0.586c-0.611,0.351-0.657,0.802-0.192,1.41
	c1.16,1.549,1.889,3.839,2.238,6.869c0.067,0.448,0.142,1.235,0.224,2.358c0.164,2.246,0.233,2.863,0.551,4.375
	c0.185,0.728,0.369,1.398,0.662,1.897c0.116,0.167,0.232,0.333,0.347,0.442c0.058,0.056,0.059,0.111,0.116,0.166
	c0.28-0.063,0.503-0.18,0.723-0.41c0.056-0.057,0.109-0.115,0.164-0.172c0.656-0.859,1.916,0.125,1.26,0.984
	c-1.257,1.604-2.938,1.866-4.057-0.302c-0.646-1.167-1.028-3.127-1.167-4.306c-0.071-0.617-0.147-1.459-0.23-2.639
	c-0.08-1.123-0.154-1.854-0.22-2.246c-0.297-3.144-0.965-5.266-2.457-6.582c-0.461-0.44-0.911-0.43-1.523-0.191L112.073,22.264z
	 M118.978,14.23c0.443-2.767-0.958-4.985-3.464-6.278c-1.195-0.648-2.385-0.958-3.624-1.043c-0.789-0.038-1.172,0.421-1.099,1.151
	c0.187,3.259,0.331,7.081,0.316,11.414c0.021,0.843,0.593,1.224,1.371,0.868C116.158,18.852,118.431,17.393,118.978,14.23"/>
<path d="M127.815,7.671c-0.055,0.054-0.055,0.054-0.055,0.108c0,0.053-0.106,0.268-0.16,0.752c0,0.108-0.055,0.216-0.055,0.377
	c-0.215,1.667-0.053,3.872,0.161,6.723c0.162,2.474,0.27,2.312,0.162,4.517c-0.054,1.076,0.322,1.184,1.075,1.184
	c0.646,0,1.237,0,1.668-0.054c0.43-0.054,0.806,0.269,0.86,0.699c0,0.43-0.323,0.806-0.754,0.806
	c-0.537,0.054-1.129,0.054-1.882,0.054c-0.7,0-1.076,0-1.13,1.077c-0.268,5.271-0.322,9.465-0.106,12.424
	c0.054,0.914,0.16,1.613,0.269,2.097c0,0.108,0.053,0.215,0.053,0.269c0.055,0.055,0.108-0.322,0.108-0.483
	c0,0.538,0.215,0.913,0.807,1.022c1.184,0.215,2.742,0,4.304-0.109c0.806-0.053,1.397-0.053,1.773-0.053
	c0.431,0,0.753,0.322,0.753,0.754c0,0.43-0.322,0.752-0.753,0.752c-0.699,0-2.958,0.215-3.657,0.269
	c-1.774,0.054-3.065-0.106-3.926-0.483c-0.592-0.215-0.807-0.86-0.968-1.56c-0.161-0.592-0.27-1.345-0.323-2.367
	c-0.215-3.28-0.107-7.96,0.054-11.509c0.055-1.775,0.162-3.227,0.216-4.464c0.107-2.366,0.054-2.097-0.161-4.733
	c-0.216-2.85-0.377-5.217-0.162-6.991c0.162-1.076,0.377-1.99,1.021-2.421c0.377-0.215,1.022-0.268,1.722-0.268
	c0.377,0,1.236,0,2.582,0.053c2.635,0.054,4.033,0.108,4.249,0.108c0.43-0.054,0.807,0.269,0.859,0.699
	c0,0.215-0.053,0.43-0.215,0.538c-0.323,0.376-0.699,0.269-1.184,0.269c-0.698,0-1.989,0-3.765-0.054
	c-1.344-0.054-2.15-0.054-2.474-0.054c-0.376,0-0.646,0-0.807,0.054H127.815z"/>
</svg>
